<svg id="Layer_1" data-name="Layer 1" xmlns="http://www.w3.org/2000/svg" viewBox="0 0 195.25595 165.11793"><defs><style>.cls-1{fill:#264a97;}.cls-2{fill:#63a8dd;}.cls-3{fill:#81c07a;}.cls-4{fill:#6aa6da;}</style></defs><title>mxitgo</title><path class="cls-1" d="M26.89974,115.4375a10.00122,10.00122,0,0,1-8.11865-15.82812L70.48568,27.49707a10.00015,10.00015,0,0,1,16.2539,11.6543L35.035,111.26367A9.98791,9.98791,0,0,1,26.89974,115.4375Z" transform="translate(-13.86995 -23.22554)"/><path class="cls-1" d="M62.20394,115.4375a10.00085,10.00085,0,0,1-8.18311-15.73633l50.28711-71.82861a10.00007,10.00007,0,0,1,16.38379,11.4707L70.40462,111.17188A9.98968,9.98968,0,0,1,62.20394,115.4375Z" transform="translate(-13.86995 -23.22554)"/><path class="cls-1" d="M143.92513,117.60742a10.00108,10.00108,0,0,1-8.20215-15.70849L186.9681,28.18311A10,10,0,0,1,203.39,39.59912l-51.24511,73.71582A9.98886,9.98886,0,0,1,143.92513,117.60742Z" transform="translate(-13.86995 -23.22554)"/><path class="cls-1" d="M95.3387,117.60742a10.00066,10.00066,0,0,1-8.17236-15.751L137.45247,30.311a10.00037,10.00037,0,0,1,16.36329,11.501l-50.28711,71.54541A9.98777,9.98777,0,0,1,95.3387,117.60742Z" transform="translate(-13.86995 -23.22554)"/><path class="cls-2" d="M147.36674,50.98727l-8.092-12.24752a10.0004,10.0004,0,0,1,16.6875-11.02539l2.771,4.194Z" transform="translate(-13.86995 -23.22554)"/><path class="cls-3" d="M158.73325,31.90837l45.24852,68.48518a10.0004,10.0004,0,1,1-16.6875,11.0254L147.36674,50.98727Z" transform="translate(-13.86995 -23.22554)"/><path class="cls-1" d="M14.12044,151.64551c0-3.06055-.12549-5.46094-.25049-7.86133h4.82422l.25049,4.74023h.188a10.54974,10.54974,0,0,1,9.58594-5.34082,8.92139,8.92139,0,0,1,8.52051,5.82129h.12548a11.616,11.616,0,0,1,3.4458-3.78027,10.46727,10.46727,0,0,1,6.64112-2.041c4.07226,0,10.02441,2.52051,10.02441,12.60254v17.04395H52.08773V156.44629c0-5.64063-2.19287-8.94141-6.57862-8.94141a7.20719,7.20719,0,0,0-6.57812,4.74121,8.65071,8.65071,0,0,0-.439,2.64063v17.94336H33.10384V155.42676c0-4.6211-2.12988-7.92188-6.32764-7.92188a7.532,7.532,0,0,0-6.8291,5.28125,6.78355,6.78355,0,0,0-.43847,2.58008v17.46387H14.12044Z" transform="translate(-13.86995 -23.22554)"/><path class="cls-1" d="M70.85534,143.78418l4.32275,6.24121c1.19043,1.62012,2.13038,3.06055,3.13282,4.68066h.125c1.00244-1.68066,2.00488-3.18066,3.07031-4.74121l4.19775-6.18066h6.01465l-10.33789,14.043,10.58838,15.00293H85.76647l-4.51123-6.541c-1.18994-1.68066-2.19238-3.30078-3.25781-5.041h-.125c-1.00244,1.74023-2.00488,3.2998-3.19531,5.041l-4.38574,6.541H64.21423l10.77588-14.82324L64.7152,143.78418Z" transform="translate(-13.86995 -23.22554)"/><path class="cls-4" d="M106.77239,133.21922a4.82443,4.82443,0,0,1-4.9909,5.13518,4.76288,4.76288,0,0,1-4.70234-5.13518,4.85467,4.85467,0,0,1,4.84662-5.20584C104.673,128.01338,106.77239,130.03918,106.77239,133.21922ZM97.297,172.83008V142.54735h9.47535v30.28273Z" transform="translate(-13.86995 -23.22554)"/><path class="cls-4" d="M125.86343,133.36645v9.1809h8.64388v6.73108h-8.64388v11.85744c0,4.12228,2.02071,5.13518,3.82862,5.13518a14.12251,14.12251,0,0,0,2.53226-.21789l.07067,7.37887a25.12891,25.12891,0,0,1-6.06938.65368,9.85512,9.85512,0,0,1-6.86948-2.2437c-1.88152-1.87858-2.96509-4.55806-2.96509-10.12313V149.27843h-5.32975v-6.73108H116.391v-9.1809Z" transform="translate(-13.86995 -23.22554)"/><path class="cls-1" d="M170.01838,170.22446c0,7.24971-1.57324,11.58057-4.71972,14.36244-3.28291,2.78713-7.933,3.75657-12.10419,3.75657-3.9679,0-8.34513-.90622-11.01267-2.58693l1.50363-4.40462a18.78151,18.78151,0,0,0,9.71231,2.5237c6.15651,0,10.67018-3.04,10.67018-10.99574V169.45h-.13644c-1.77929,2.90832-5.4047,5.23708-10.53374,5.23708-8.2059,0-14.08954-6.5964-14.08954-15.26865,0-10.61113,7.32044-16.56475,14.98058-16.56475,5.74441,0,8.82127,2.78187,10.3249,5.36879h.13922l.20327-4.72074h5.33509c-.20327,2.197-.27288,4.78924-.27288,8.54054ZM163.9983,155.862a7.10011,7.10011,0,0,0-.3397-2.5237,8.52249,8.52249,0,0,0-8.41474-6.08533c-5.74441,0-9.84875,4.59429-9.84875,11.844,0,6.14329,3.35253,11.25918,9.78192,11.25918a8.64229,8.64229,0,0,0,8.34513-5.82717,9.4657,9.4657,0,0,0,.47614-3.04Z" transform="translate(-13.86995 -23.22554)"/><path class="cls-1" d="M209.1259,158.03409c0,10.9118-8.21585,15.66773-15.84027,15.66773-8.545,0-15.25151-5.85306-15.25151-15.18122,0-9.81467,7.03566-15.60816,15.776-15.60816C202.94929,142.91244,209.1259,149.06833,209.1259,158.03409Zm-25.17476.30283c0,6.46368,3.94468,11.34371,9.59676,11.34371,5.52094,0,9.66366-4.82046,9.66366-11.46286,0-4.99918-2.69491-11.27918-9.53253-11.27918C186.90831,146.93859,183.95114,152.79165,183.95114,158.33692Z" transform="translate(-13.86995 -23.22554)"/><polygon class="cls-2" points="157.437 27.642 145.147 45.323 157.016 63.287 169.307 45.607 157.437 27.642"/></svg>